<?xml version="1.0" encoding="UTF-8" standalone="no"?>
<svg
   xmlns:dc="http://purl.org/dc/elements/1.1/"
   xmlns:cc="http://creativecommons.org/ns#"
   xmlns:rdf="http://www.w3.org/1999/02/22-rdf-syntax-ns#"
   xmlns:svg="http://www.w3.org/2000/svg"
   xmlns="http://www.w3.org/2000/svg"
   xmlns:sodipodi="http://sodipodi.sourceforge.net/DTD/sodipodi-0.dtd"
   xmlns:inkscape="http://www.inkscape.org/namespaces/inkscape"
   version="1.1"
   id="svg2"
   inkscape:version="0.48.3.1 r9886"
   width="32"
   height="32"
   sodipodi:docname="search.svg">
  <metadata
     id="metadata10">
    <rdf:RDF>
      <cc:Work
         rdf:about="">
        <dc:format>image/svg+xml</dc:format>
        <dc:type
           rdf:resource="http://purl.org/dc/dcmitype/StillImage" />
      </cc:Work>
    </rdf:RDF>
  </metadata>
  <defs
     id="defs8" />
  <sodipodi:namedview
     pagecolor="#ffffff"
     bordercolor="#666666"
     borderopacity="1"
     objecttolerance="10"
     gridtolerance="10"
     guidetolerance="10"
     inkscape:pageopacity="0"
     inkscape:pageshadow="2"
     inkscape:window-width="1276"
     inkscape:window-height="775"
     id="namedview6"
     showgrid="false"
     fit-margin-top="0"
     fit-margin-left="0"
     fit-margin-right="0"
     fit-margin-bottom="0"
     inkscape:zoom="1.7940591"
     inkscape:cx="-15.191488"
     inkscape:cy="-46.324883"
     inkscape:window-x="0"
     inkscape:window-y="21"
     inkscape:window-maximized="0"
     inkscape:current-layer="svg2" />
  <path
     d="M29.772,26.433l-7.126-7.126c0.96-1.583,1.523-3.435,1.524-5.421C24.169,8.093,19.478,3.401,13.688,3.399C7.897,3.401,3.204,8.093,3.204,13.885c0,5.789,4.693,10.481,10.484,10.481c1.987,0,3.839-0.563,5.422-1.523l7.128,7.127L29.772,26.433zM7.203,13.885c0.006-3.582,2.903-6.478,6.484-6.486c3.579,0.008,6.478,2.904,6.484,6.486c-0.007,3.58-2.905,6.476-6.484,6.484C10.106,20.361,7.209,17.465,7.203,13.885z"
     id="path4"
     inkscape:connector-curvature="0"
     style="stroke:#333333;stroke-opacity:1;fill:#333333;fill-opacity:1" />
</svg>
